<?xml version="1.0" encoding="utf-8"?>
<!-- Generator: Adobe Illustrator 18.1.0, SVG Export Plug-In . SVG Version: 6.00 Build 0)  -->
<svg version="1.1" id="Layer_1" xmlns="http://www.w3.org/2000/svg" xmlns:xlink="http://www.w3.org/1999/xlink" x="0px" y="0px"
	 viewBox="0 0 45 45" enable-background="new 0 0 45 45" xml:space="preserve">
<g>
	<g>
		<path fill="#FBEC9B" d="M22.5,2.8c10.9,0,19.7,8.8,19.7,19.7s-8.8,19.7-19.7,19.7S2.8,33.4,2.8,22.5S11.6,2.8,22.5,2.8 M22.5,0
			C10.1,0,0,10.1,0,22.5S10.1,45,22.5,45S45,34.9,45,22.5S34.9,0,22.5,0L22.5,0z"/>
		<path fill="#FACB1B" d="M22.5,42.2c-10.9,0-19.7-8.8-19.7-19.7S11.6,2.8,22.5,2.8s19.7,8.8,19.7,19.7S33.4,42.2,22.5,42.2z"/>
		<path fill="#FBE158" d="M22.5,2.8c-10.9,0-19.7,8.8-19.7,19.7c0,5.6,2.3,10.6,6.1,14.2L36.7,8.9C33.1,5.2,28.1,2.8,22.5,2.8z"/>
		<path fill="#FBF5C3" d="M2.8,22.5c0-10.9,8.8-19.7,19.7-19.7c5.6,0,10.6,2.3,14.2,6.1l2-2C34.6,2.6,28.9,0,22.5,0
			C10.1,0,0,10.1,0,22.5c0,6.4,2.6,12.1,6.9,16.2l2-2C5.1,33.1,2.8,28.1,2.8,22.5z"/>
	</g>
	<g>
		<g>
			<path fill="#FFFFFF" d="M38.1,16.4C38.1,16.4,38.2,16.4,38.1,16.4L38.1,16.4C38.2,16.4,38.2,16.4,38.1,16.4c-0.9-0.3-1.4-1-1.4-2
				c0,0,0,0,0,0l0,0c0,0,0,0,0,0c-0.3,1-0.9,1.4-1.9,1.5c0,0,0,0,0,0l0,0c0,0,0,0,0,0c1,0.3,1.4,0.9,1.5,1.9c0,0,0,0,0,0l0,0
				c0,0,0,0,0,0C36.5,17,37.1,16.5,38.1,16.4z"/>
		</g>
		<g>
			<path fill="#FFFFFF" d="M12.6,28.8C12.6,28.8,12.7,28.8,12.6,28.8L12.6,28.8c0.1-0.1,0-0.1,0-0.1c-1.7-0.5-2.5-1.6-2.5-3.3
				c0,0,0-0.1-0.1-0.1l0,0c0,0-0.1,0-0.1,0c-0.5,1.7-1.6,2.5-3.3,2.5c0,0-0.1,0-0.1,0.1l0,0c0,0,0,0.1,0,0.1
				c1.7,0.5,2.5,1.6,2.5,3.3c0,0,0,0.1,0.1,0.1l0,0c0,0,0.1,0,0.1,0C9.8,29.7,10.9,28.8,12.6,28.8z"/>
		</g>
	</g>
	<g>
		<g>
			<path fill="#F39139" d="M34.3,22.8c0.1,0,0.2-0.1,0.2-0.2v-0.1c0-0.1-0.1-0.2-0.2-0.2c-6.7-1-10.6-4.9-11.6-11.6
				c0-0.1-0.1-0.2-0.2-0.2h-0.1c-0.1,0-0.2,0.1-0.2,0.2c-1,6.7-4.9,10.6-11.6,11.6c-0.1,0-0.2,0.1-0.2,0.2v0.1
				c0,0.1,0.1,0.2,0.2,0.2c6.7,1,10.6,4.9,11.6,11.6c0,0.1,0.1,0.2,0.2,0.2h0.1c0.1,0,0.2-0.1,0.2-0.2
				C23.8,27.6,27.6,23.8,34.3,22.8z"/>
		</g>
		<g>
			<path fill="#F39139" d="M31.6,14.3c0.1-0.1,0.1-0.2,0-0.3l0,0c-0.1-0.1-0.2-0.1-0.3,0c-5.5,4-10.9,4-16.4,0
				c-0.1-0.1-0.2-0.1-0.3,0l0,0c-0.1,0.1-0.1,0.2,0,0.3c4,5.5,4,10.9,0,16.4c-0.1,0.1-0.1,0.2,0,0.3l0,0c0.1,0.1,0.2,0.1,0.3,0
				c5.5-4,10.9-4,16.4,0c0.1,0.1,0.2,0.1,0.3,0l0.1-0.1c0.1-0.1,0.1-0.2,0-0.3C27.6,25.2,27.6,19.8,31.6,14.3z"/>
		</g>
	</g>
</g>
</svg>
